<?xml version="1.0" encoding="UTF-8"?>
<svg width="115px" height="115px" viewBox="0 0 115 115" version="1.1" xmlns="http://www.w3.org/2000/svg" xmlns:xlink="http://www.w3.org/1999/xlink">
    <!-- Generator: Sketch 46.2 (44496) - http://www.bohemiancoding.com/sketch -->
    <title>Group 12</title>
    <desc>Created with Sketch.</desc>
    <defs></defs>
    <g id="Desktop" stroke="none" stroke-width="1" fill="none" fill-rule="evenodd">
        <g id="Landing-Updated-6-Copy-7" transform="translate(-237.000000, -2738.000000)">
            <g id="Group-12" transform="translate(238.000000, 2739.000000)">
                <g id="Group-8" transform="translate(22.000000, 22.000000)" fill-rule="nonzero">
                    <path d="M22.379257,21.261079 C21.501548,21.9874759 21,23.0631021 21,24.194605 L21,27.617052 C21,28.3853565 21.6130031,29 22.379257,29 C23.1455108,29 23.7585139,28.3853565 23.7585139,27.617052 L23.7585139,24.194605 C23.7585139,23.8872832 23.8978328,23.5939306 24.1346749,23.3983622 C27.1160991,20.9537572 30.3343653,19.3193642 30.9613003,19.0120424 C31.504644,18.7466281 31.8668731,18.1738921 31.8668731,17.5732177 L31.8668731,12.7538536 C31.8668731,12.2928709 31.630031,11.8598266 31.25387,11.6083815 C31.0170279,11.4407514 30.8637771,11.1753372 30.8637771,10.8819846 L30.8637771,5.88102119 C30.8637771,4.1628131 32.2569659,2.76589595 33.9705882,2.76589595 L35.0433437,2.76589595 C36.7569659,2.76589595 38.1501548,4.1628131 38.1501548,5.88102119 L38.1501548,10.8819846 C38.1501548,11.1753372 38.0108359,11.4407514 37.7600619,11.6083815 C37.369969,11.8598266 37.1470588,12.2928709 37.1470588,12.7538536 L37.1470588,17.5732177 C37.1470588,18.1878613 37.495356,18.7466281 38.0386997,19.0120424 C38.6517028,19.3193642 41.8839009,20.9537572 44.8653251,23.3983622 C45.1021672,23.5939306 45.2414861,23.8872832 45.2414861,24.194605 L45.2414861,27.617052 C45.2414861,28.3853565 45.8544892,29 46.620743,29 C47.3869969,29 48,28.3853565 48,27.617052 L48,24.194605 C48,23.0491329 47.498452,21.9735067 46.620743,21.261079 C44.001548,19.1098266 41.2151703,17.5452794 39.9055728,16.86079 L39.9055728,13.3824663 C40.5464396,12.7119461 40.9086687,11.8179191 40.9086687,10.8680154 L40.9086687,5.88102119 C40.9086687,2.64017341 38.2755418,0 35.0433437,0 L33.9705882,0 C30.7383901,0 28.1052632,2.64017341 28.1052632,5.88102119 L28.1052632,10.8819846 C28.1052632,11.8318882 28.4674923,12.7259152 29.1083591,13.3964355 L29.1083591,16.86079 C27.7848297,17.5452794 24.998452,19.1098266 22.379257,21.261079 Z" id="Shape-Copy-5" fill="#2C2F33"></path>
                    <path d="M67.620031,61 C68.3866804,61 69,60.3856524 69,59.6177179 L69,56.1969186 C69,55.0519981 68.4981931,53.9768897 67.620031,53.264805 C64.9994837,51.1145883 62.2116675,49.5507944 60.9013939,48.8666346 L60.9013939,45.3899856 C61.5425916,44.7197882 61.9050077,43.8261916 61.9050077,42.8767453 L61.9050077,37.8781897 C61.9050077,34.6389023 59.2705214,32 56.0366546,32 L54.9633454,32 C51.7294786,32 49.0949923,34.6389023 49.0949923,37.8781897 L49.0949923,42.8767453 C49.0949923,43.8261916 49.4574084,44.7197882 50.0986061,45.3899856 L50.0986061,48.8666346 C48.7883325,49.5507944 46.0005163,51.1145883 43.379969,53.264805 C42.5018069,53.9908522 42,55.0519981 42,56.1969186 L42,59.6177179 C42,60.3856524 42.6133196,61 43.379969,61 C44.1466185,61 44.759938,60.3856524 44.759938,59.6177179 L44.759938,56.1969186 C44.759938,55.8897448 44.8993289,55.5965335 45.1362932,55.4010592 C48.1192566,52.9436688 51.3391843,51.3100626 51.966443,51.0168512 C52.5100671,50.7515648 52.8585441,50.1791045 52.8585441,49.5787193 L52.8585441,44.7616755 C52.8585441,44.3009148 52.6215798,43.868079 52.2452246,43.6167549 C52.0082602,43.4492056 51.8549303,43.1839191 51.8549303,42.8907078 L51.8549303,37.8921521 C51.8549303,36.1747713 53.2488384,34.7785267 54.9633454,34.7785267 L56.0366546,34.7785267 C57.7511616,34.7785267 59.1450697,36.1747713 59.1450697,37.8921521 L59.1450697,42.8907078 C59.1450697,43.1839191 59.0056789,43.4492056 58.7547754,43.6167549 C58.3644812,43.868079 58.1414559,44.3009148 58.1414559,44.7616755 L58.1414559,49.5787193 C58.1414559,50.1930669 58.4899329,50.7515648 59.033557,51.0168512 C59.6468766,51.324025 62.8807434,52.9576312 65.8637068,55.4010592 C66.1006711,55.5965335 66.240062,55.8897448 66.240062,56.1969186 L66.240062,59.6177179 C66.240062,60.3856524 66.8673206,61 67.620031,61 Z" id="Shape-Copy-4" fill="#2C2F33"></path>
                    <path d="M25.620031,53.264805 C22.9994837,51.1145883 20.2116675,49.5507944 18.9013939,48.8666346 L18.9013939,45.3899856 C19.5425916,44.7197882 19.9050077,43.8261916 19.9050077,42.8767453 L19.9050077,37.8781897 C19.9050077,34.6389023 17.2705214,32 14.0366546,32 L12.9633454,32 C9.72947858,32 7.09499226,34.6389023 7.09499226,37.8781897 L7.09499226,42.8767453 C7.09499226,43.8261916 7.45740836,44.7197882 8.09860609,45.3899856 L8.09860609,48.8666346 C6.78833247,49.5507944 4.00051626,51.1145883 1.37996902,53.264805 C0.501806918,53.9908522 0,55.0519981 0,56.1969186 L0,59.6177179 C0,60.3856524 0.613319566,61 1.37996902,61 C2.14661848,61 2.75993805,60.3856524 2.75993805,59.6177179 L2.75993805,56.1969186 C2.75993805,55.8897448 2.89932886,55.5965335 3.13629324,55.4010592 C6.11925658,52.9436688 9.33918431,51.3100626 9.96644295,51.0168512 C10.5100671,50.7515648 10.8585441,50.1791045 10.8585441,49.5787193 L10.8585441,44.7616755 C10.8585441,44.3009148 10.6215798,43.868079 10.2452246,43.6167549 C10.0082602,43.4492056 9.8549303,43.1839191 9.8549303,42.8907078 L9.8549303,37.8921521 C9.8549303,36.1747713 11.2488384,34.7785267 12.9633454,34.7785267 L14.0366546,34.7785267 C15.7511616,34.7785267 17.1450697,36.1747713 17.1450697,37.8921521 L17.1450697,42.8907078 C17.1450697,43.1839191 17.0056789,43.4492056 16.7547754,43.6167549 C16.3644812,43.868079 16.1414559,44.3009148 16.1414559,44.7616755 L16.1414559,49.5787193 C16.1414559,50.1930669 16.4899329,50.7515648 17.033557,51.0168512 C17.6468766,51.324025 20.8807434,52.9436688 23.8637068,55.4010592 C24.1006711,55.5965335 24.240062,55.8897448 24.240062,56.1969186 L24.240062,59.6177179 C24.240062,60.3856524 24.8533815,61 25.620031,61 C26.3866804,61 27,60.3856524 27,59.6177179 L27,56.1969186 C27,55.0519981 26.4981931,53.9768897 25.620031,53.264805 Z" id="Shape-Copy-3" fill="#2C2F33"></path>
                    <path d="M42.8941308,43.8089888 C43.1216182,43.9317817 43.3633237,43.9863563 43.5908111,43.9863563 C44.074222,43.9863563 44.5576329,43.7407705 44.8135563,43.3041734 C45.1974414,42.6629213 44.9699539,41.8306581 44.3017095,41.4622793 L36.4107379,37.0963082 L36.4107379,28.3507223 C36.4107379,27.600321 35.7851473,27 35.0031592,27 C34.221171,27 33.5955804,27.600321 33.5955804,28.3507223 L33.5955804,37.0963082 L25.7046089,41.475923 C25.0363644,41.8443018 24.794659,42.676565 25.192762,43.317817 C25.4486854,43.7544141 25.9320963,44 26.4155072,44 C26.6572126,44 26.8989181,43.9454254 27.1121876,43.8226324 L35.0031592,39.4430177 L42.8941308,43.8089888 Z" id="Shape-Copy-2" fill="#18BD5C"></path>
                </g>
                <circle id="Oval-10-Copy-8" stroke="#18BD5C" stroke-width="2" cx="56.5" cy="56.5" r="56.5"></circle>
            </g>
        </g>
    </g>
</svg>