<svg xmlns="http://www.w3.org/2000/svg" width="23" height="33" viewBox="0 0 23 33">
  <g fill="none" fill-rule="evenodd" transform="translate(-10 -5)">
    <rect width="43" height="43"/>
    <path fill="#9AA1AB" fill-rule="nonzero" d="M22.0939494,17.3125367 C21.3544739,16.321169 20.2385941,15.6402288 18.7463772,15.2701331 C20.6466222,14.2652202 21.4817063,12.5596398 21.2524333,10.1531141 C21.1757857,9.28045769 20.9431628,8.52415082 20.5540286,7.88308211 C20.1646265,7.24187448 19.639148,6.72639383 18.9755831,6.33643178 C18.3125543,5.94598349 17.5914367,5.64875378 16.8139054,5.44383963 C16.036173,5.23892548 15.1432683,5.09013697 14.135794,4.99768248 L14.135794,0 L11.19022,0 L11.19022,4.8588271 C10.6801514,4.8588271 9.9022851,4.87202496 8.85668805,4.89849014 L8.85668805,0 L5.910712,0 L5.910712,4.99768248 C5.489753,5.0109498 4.87134593,5.01768766 4.05522279,5.01768766 L0,4.99768248 L0,8.25019102 L2.12315294,8.25019102 C3.09237035,8.25019102 3.65985766,8.69982129 3.82561488,9.59873452 L3.82561488,15.2906245 C3.95331627,15.2906245 4.05522279,15.2974318 4.13180343,15.3106296 L3.82561488,15.3106296 L3.82561488,23.2827626 C3.72370836,23.9568954 3.35393711,24.2942744 2.71623413,24.2942744 L0.59321519,24.2942744 L0.000133999365,27.9236166 L3.82594988,27.9236166 C4.06828773,27.9236166 4.41876307,27.9269508 4.87804589,27.9329246 C5.33706072,27.939593 5.68123809,27.9429271 5.910846,27.9429271 L5.910846,33 L8.85729105,33 L8.85729105,28.002387 C9.39275251,28.0159322 10.1706188,28.0223922 11.190823,28.0223922 L11.190823,33 L14.136464,33 L14.136464,27.9429271 C15.1823961,27.8901357 16.1100737,27.7914991 16.9194969,27.6455585 C17.729322,27.499618 18.5042404,27.2719201 19.2437159,26.9610063 C19.9831243,26.6505093 20.6015314,26.2635341 21.0988031,25.8007755 C21.5963427,25.3384336 22.0072518,24.749809 22.3330042,24.0357353 C22.6576847,23.3216615 22.8651827,22.4953365 22.9541583,21.556413 C23.1206525,19.7191318 22.8335588,18.3043212 22.0939494,17.3125367 Z M8.91397278,8.46774733 C9.00328336,8.46774733 9.25513516,8.46441314 9.6695952,8.45774474 C10.0842562,8.45093743 10.4284336,8.44440796 10.7025963,8.43773957 C10.976826,8.4312101 11.3466643,8.44774216 11.8123121,8.4874052 C12.2777588,8.52706824 12.669841,8.58006807 12.9885585,8.64605738 C13.307276,8.71204668 13.6582873,8.82117215 14.0405205,8.97322539 C14.4234237,9.12513971 14.7292772,9.31032654 14.9585501,9.52843855 C15.1882921,9.74655056 15.3827251,10.0243308 15.5418494,10.3615014 C15.7014426,10.6986025 15.7811723,11.0852999 15.7811723,11.5215239 C15.7811723,11.8917586 15.7238875,12.2289987 15.6092511,12.5332441 C15.4948156,12.8372811 15.3222244,13.0918609 15.0929515,13.296775 C14.8636116,13.5017587 14.6272367,13.680416 14.3848989,13.8323303 C14.142829,13.9842447 13.8332905,14.1066375 13.4572213,14.1990919 C13.081219,14.2916853 12.7528536,14.3644125 12.4724599,14.4172039 C12.1918653,14.4701343 11.8412559,14.5066021 11.4203639,14.5263294 C10.9994049,14.5460567 10.6804864,14.5595325 10.4638094,14.5660619 C10.2469315,14.5725914 9.95052487,14.5725914 9.57418765,14.5660619 C9.19778343,14.5595325 8.97809147,14.5560593 8.91417378,14.5560593 L8.91417378,8.46767787 L8.91397278,8.46767787 L8.91397278,8.46774733 Z M16.9579547,21.973118 C16.8364843,22.2773635 16.680509,22.5419458 16.4893589,22.7668652 C16.2978738,22.9912288 16.045888,23.1897524 15.7336025,23.361394 C15.421384,23.5335219 15.1182104,23.6720995 14.8251538,23.7778907 C14.5316952,23.8840988 14.1776688,23.9761365 13.7636108,24.0557404 C13.3486148,24.135136 12.9854095,24.1909838 12.672655,24.2242563 C12.3603695,24.2573899 11.9875162,24.2837161 11.5537603,24.3037213 C11.1203393,24.3231708 10.7821919,24.3332428 10.5399881,24.3332428 C10.2976502,24.3332428 9.99152867,24.3296308 9.62169043,24.3231708 C9.25165118,24.3169886 9.0159463,24.3136544 8.91383878,24.3136544 L8.91383878,17.6101832 C9.0157453,17.6101832 9.31865086,17.6037232 9.82248848,17.5902475 C10.3263931,17.5769107 10.7374361,17.5707285 11.0562876,17.5707285 C11.3750721,17.5707285 11.815193,17.5902475 12.3765164,17.6301884 C12.9373037,17.6695736 13.4091825,17.728825 13.7920857,17.8081511 C14.1745199,17.8876161 14.5918609,18.0097311 15.0449127,18.1751905 C15.4974956,18.3403722 15.8643189,18.5419521 16.1449805,18.7799304 C16.4255752,19.0183255 16.6613471,19.3219457 16.8525642,19.6922499 C17.0442503,20.0623457 17.1398588,20.4855108 17.1398588,20.9616062 C17.1397918,21.3321883 17.0792911,21.6688032 16.9579547,21.973118 Z" transform="translate(10 5)"/>
  </g>
</svg>
