<svg width="33px" height="40px" viewBox="0 0 33 40" version="1.1" xmlns="http://www.w3.org/2000/svg" xmlns:xlink="http://www.w3.org/1999/xlink">
    <g id="Desktop" stroke="none" stroke-width="1" fill="none" fill-rule="evenodd">
        <g id="Landing-Updated-6-Copy-7" transform="translate(-545.000000, -1512.000000)">
            <g id="ic_debosit" transform="translate(545.000000, 1512.000000)">
                <path d="M24.630497,15.1965327 C20.1268712,10.5038534 12.7990569,10.5040415 8.29552133,15.1966268 C6.50324272,17.0641792 5.37167163,19.4305545 5.02321814,22.0398979 C4.68622932,24.5633606 5.13614957,27.1820164 6.29010835,29.4136917 C6.5266234,29.8711263 7.07448977,30.0420411 7.51303563,29.7955927 C7.95203286,29.5492383 8.11605876,28.9787384 7.87963397,28.5213978 C5.85544422,24.6068183 6.55144846,19.6745573 9.57225128,16.526978 C13.3719289,12.5678121 19.5543603,12.567718 23.3538573,16.526884 C27.1535349,20.4860499 27.1535349,26.9282309 23.3538573,30.8873969 C20.3329642,34.0351643 15.5991424,34.7603059 11.8427056,32.6510083 C11.4034375,32.4045598 10.8562031,32.5756628 10.619688,33.0329093 C10.3832632,33.4902498 10.5473794,34.0607498 10.9861961,34.3071982 C12.6641892,35.2493461 14.5700311,35.7412083 16.4813797,35.7412083 C17.0097471,35.7412083 17.5384756,35.7035826 18.0628711,35.6273905 C20.5670419,35.2643023 22.8381281,34.0852065 24.630497,32.2176541 C29.1341229,27.5248807 29.1341229,19.8893061 24.630497,15.1965327 Z" id="Shape" fill="#B8BBBE" fill-rule="nonzero"></path>
                <path d="M9.28316497,31.2283626 C8.99080442,30.9238791 8.51713095,30.9238791 8.22484524,31.2283626 L8.21915816,31.2342885 C7.92694728,31.5388499 7.92694728,32.0325731 8.21915816,32.3370565 C8.36530102,32.4893372 8.55671599,32.5654386 8.74828061,32.5654386 C8.93977041,32.5654386 9.1312602,32.4893372 9.27747789,32.3370565 L9.28316497,32.3311306 C9.57545068,32.0265692 9.57545068,31.532846 9.28316497,31.2283626 Z" id="Shape" fill="#B8BBBE" fill-rule="nonzero"></path>
                <path d="M29.5139728,14.0161404 C27.5093537,11.0369591 24.8118844,8.62861598 21.677932,7.01146199 L24.7982653,1.15836257 C24.9269728,0.916881092 24.9234558,0.622378168 24.7889864,0.384327485 C24.654517,0.14619883 24.4092993,0 24.1441769,0 C22.9978571,0 22.3153333,0.516647173 21.7668299,0.931773879 C21.2876939,1.29442495 20.9415306,1.55649123 20.3028571,1.55649123 C19.6418095,1.55649123 19.2494014,1.26838207 18.7526054,0.903625731 C18.2043265,0.501052632 17.5218776,0 16.4615374,0 C15.396932,0 14.7000408,0.504717349 14.1400884,0.910253411 C13.6417959,1.27111111 13.2482653,1.55617934 12.6217143,1.55641326 C11.9946395,1.55617934 11.601034,1.27111111 11.1028163,0.910253411 C10.5427891,0.504717349 9.84582313,0 8.78136735,0 C8.5162449,0 8.27095238,0.14619883 8.13648299,0.384327485 C8.00201361,0.622378168 7.9984966,0.916881092 8.12720408,1.15836257 L11.2475374,7.01146199 C8.11358503,8.62869396 5.41611565,11.0369591 3.4114966,14.0161404 C1.17984354,17.3328655 0.000149659864,21.0934113 0.000149659864,24.8912281 C0.000149659864,29.437115 1.68629252,33.2821832 4.87629252,36.0107602 C7.82511565,38.5330994 11.9399388,39.9222612 16.4627347,39.9222612 C20.9855306,39.9222612 25.1003537,38.5331774 28.0491769,36.0107602 C31.2391769,33.2821832 32.9253197,29.437115 32.9253197,24.8912281 C32.9253197,21.0934113 31.7456259,17.3328655 29.5139728,14.0161404 Z M16.4627347,38.362729 C9.01334014,38.362729 1.4967483,34.197193 1.4967483,24.8912281 C1.4967483,17.9794932 5.89360544,11.268616 12.4532721,8.14105263 L16.4627347,8.14105263 C16.8759456,8.14105263 17.211034,7.79196881 17.211034,7.36132554 C17.211034,6.93068226 16.8759456,6.58159844 16.4627347,6.58159844 L12.7303673,6.58159844 L10.4767891,2.35430799 C11.0069592,2.72670565 11.667034,3.11547758 12.6217143,3.11594542 C13.7175986,3.11547758 14.425415,2.60280702 14.9941973,2.19087719 C15.4812653,1.83812865 15.865966,1.55953216 16.4615374,1.55953216 C17.0475306,1.55953216 17.4011769,1.81918129 17.8904898,2.17847953 C18.4594218,2.59617934 19.1673878,3.11602339 20.3027823,3.11602339 C21.3025102,3.11602339 21.9474694,2.71204678 22.4597551,2.33364522 L19.9812381,6.98276803 C19.8794694,7.1737232 19.8591905,7.40038986 19.925415,7.6077193 C19.9916395,7.81497076 20.1383061,7.98378168 20.3295714,8.07306043 C26.9682585,11.1708382 31.4286463,17.9295906 31.4286463,24.891384 C31.4287211,34.197271 23.9120544,38.362729 16.4627347,38.362729 Z" id="Shape" fill="#38393C" fill-rule="nonzero"></path>
                <path d="M18.8871497,6.81013645 C18.7480408,6.66510721 18.5549796,6.58167641 18.3581769,6.58167641 C18.1613741,6.58167641 17.9683878,6.66510721 17.8291293,6.81013645 C17.6898707,6.95516569 17.6098776,7.15555556 17.6098776,7.36140351 C17.6098776,7.56647173 17.6899456,7.76764133 17.8291293,7.91267057 C17.9683129,8.05769981 18.1613741,8.1411306 18.3581769,8.1411306 C18.5549796,8.1411306 18.7480408,8.05769981 18.8871497,7.91267057 C19.0270816,7.76764133 19.1064762,7.56647173 19.1064762,7.36140351 C19.1064014,7.15555556 19.0270816,6.95516569 18.8871497,6.81013645 Z" id="Shape" fill="#B8BBBE" fill-rule="nonzero"></path>
                <g id="Group-9" transform="translate(0.000000, 8.000000)" fill="#38393C">
                    <path d="M16.1464466,-5.2027958 L16.1629824,-5.2027958 L16.1629824,-5.2027958 C16.708767,-5.2027958 17.1537438,-4.76517707 17.1628434,-4.21946833 L17.8368809,36.2029348 L17.8368809,36.2029348 C17.8459366,36.7460116 17.413027,37.1936034 16.8699502,37.2026591 C16.8644851,37.2027502 16.8590193,37.2027958 16.8535534,37.2027958 L16.8370176,37.2027958 L16.8370176,37.2027958 C16.291233,37.2027958 15.8462562,36.7651771 15.8371566,36.2194683 L15.1631191,-4.20293479 L15.1631191,-4.20293479 C15.1540634,-4.74601156 15.586973,-5.19360338 16.1300498,-5.2026591 C16.1355149,-5.20275023 16.1409807,-5.2027958 16.1464466,-5.2027958 Z" id="Rectangle-5" transform="translate(16.500000, 16.000000) rotate(-315.000000) translate(-16.500000, -16.000000) "></path>
                    <path d="M16,-5.55634919 L16,-5.55634919 L16,-5.55634919 C16.5522847,-5.55634919 17,-5.10863394 17,-4.55634919 L17,36.5563492 L17,36.5563492 C17,37.1086339 16.5522847,37.5563492 16,37.5563492 L16,37.5563492 L16,37.5563492 C15.4477153,37.5563492 15,37.1086339 15,36.5563492 L15,-4.55634919 L15,-4.55634919 C15,-5.10863394 15.4477153,-5.55634919 16,-5.55634919 Z" id="Rectangle-5" transform="translate(16.000000, 16.000000) scale(-1, 1) rotate(-315.000000) translate(-16.000000, -16.000000) "></path>
                </g>
            </g>
        </g>
    </g>
</svg>