<svg xmlns="http://www.w3.org/2000/svg" xmlns:xlink="http://www.w3.org/1999/xlink" width="48" height="37" viewBox="0 0 48 37"> <defs> <path id="a" d="M588 1243.21a5.15 5.15 0 0 0-.12-.5.95.95 0 0 0-1.16-.68.95.95 0 0 0-.69 1.15l.11.44c.09.44.49.74.93.74l.2-.02a.94.94 0 0 0 .73-1.13z"/> <path id="b" d="M590 1246.69a7.35 7.35 0 0 1-7.39 7.29 7.34 7.34 0 0 1-7.38-7.29c0-.52.42-.94.95-.94h.73c.29-4.02 2.52-7.39 3.92-9.13a8.56 8.56 0 0 1-2.83-1.07 6.41 6.41 0 0 0-6.76.09l-4.28 2.75v23.68a5.8 5.8 0 0 1 4.81 4.88h1.97c.53 0 .96.42.96.94s-.43.95-.96.95h-15.48a.96.96 0 0 1-.96-.95c0-.52.43-.94.96-.94h1.97a5.8 5.8 0 0 1 4.81-4.88v-23.55l-4.47-2.88a6.41 6.41 0 0 0-6.76-.09c-.84.5-1.74.85-2.66 1.03 1.39 1.74 3.65 5.13 3.94 9.17h.73c.53 0 .95.42.95.94a7.34 7.34 0 0 1-7.38 7.29 7.35 7.35 0 0 1-7.39-7.29c0-.52.43-.94.96-.94h.73c.29-4.07 2.58-7.49 3.97-9.21a8.18 8.18 0 0 1-3.98-2.18l-.67-.65a.95.95 0 0 1 0-1.34.96.96 0 0 1 1.35 0l.67.66a6.38 6.38 0 0 0 7.78.91 8.33 8.33 0 0 1 8.8.12l3.43 2.2v-3.32c0-.52.43-.94.96-.94s.96.42.96.94v3.2l3.24-2.08a8.33 8.33 0 0 1 8.8-.12 6.38 6.38 0 0 0 7.78-.91l.66-.66a.96.96 0 0 1 1.35 0c.38.37.38.97 0 1.34l-.66.65a8.27 8.27 0 0 1-3.82 2.15c.64.79 1.48 1.95 2.23 3.38a.94.94 0 0 1-.41 1.27.97.97 0 0 1-1.29-.4 18.95 18.95 0 0 0-2.23-3.32c-1.16 1.4-3.46 4.59-3.78 8.31h10.21c.53 0 .96.42.96.94zm-35.22.94H544a5.46 5.46 0 0 0 5.39 4.46 5.47 5.47 0 0 0 5.39-4.46zm-5.39-10.19c-1.17 1.4-3.47 4.59-3.78 8.31h7.56c-.32-3.73-2.61-6.91-3.78-8.31zm16.61 26.44a3.92 3.92 0 0 0-3.8 2.92h7.6a3.92 3.92 0 0 0-3.8-2.92zm22-16.25h-10.78a5.47 5.47 0 0 0 5.39 4.46c2.7 0 4.94-1.93 5.39-4.46z"/> </defs> <g transform="translate(-542 -1232)"> <use fill="#b8bbbe" xlink:href="#a"/> </g> <g transform="translate(-542 -1232)"> <use fill="#38393c" xlink:href="#b"/> </g> </svg>