<?xml version="1.0" encoding="UTF-8"?>
<svg width="39px" height="38px" viewBox="0 0 39 38" version="1.1" xmlns="http://www.w3.org/2000/svg" xmlns:xlink="http://www.w3.org/1999/xlink">
    <!-- Generator: Sketch 46.2 (44496) - http://www.bohemiancoding.com/sketch -->
    <title>ic_pool</title>
    <desc>Created with Sketch.</desc>
    <defs></defs>
    <g id="Desktop" stroke="none" stroke-width="1" fill="none" fill-rule="evenodd">
        <g id="Landing-Updated-6-Copy-7" transform="translate(-926.000000, -1232.000000)">
            <g id="ic_pool" transform="translate(927.000000, 1233.000000)">
                <path d="M27,10 L32,5" id="Line-5" stroke="#B8BBBE" stroke-width="2" stroke-linecap="square"></path>
                <path d="M5,11 L11,5" id="Line-5" stroke="#B8BBBE" stroke-width="2" stroke-linecap="square" transform="translate(8.000000, 8.000000) scale(-1, 1) translate(-8.000000, -8.000000) "></path>
                <path d="M27,31 L32,26" id="Line-5" stroke="#B8BBBE" stroke-width="2" stroke-linecap="square" transform="translate(29.500000, 28.500000) scale(1, -1) translate(-29.500000, -28.500000) "></path>
                <path d="M5,31 L11,25" id="Line-5" stroke="#B8BBBE" stroke-width="2" stroke-linecap="square" transform="translate(8.000000, 28.000000) scale(-1, -1) translate(-8.000000, -28.000000) "></path>
                <circle id="Oval-3" stroke="#38393C" stroke-width="2" cx="19" cy="18" r="11"></circle>
                <path d="M13.7519809,11.1535932 C11.3675315,12.8952289 10,15.4975058 10,18.293282 C10,18.6835317 10.3444598,19 10.7692269,19 C11.1939939,19 11.5384537,18.6836024 11.5384537,18.293282 C11.5384537,15.9309359 12.6942171,13.7319123 14.7094376,12.2599602 C15.0419743,12.0170612 15.0972818,11.5724649 14.8328216,11.2669507 C14.5685152,10.9614366 14.0845946,10.9106236 13.7519809,11.1535932 Z" id="Shape" fill="#B8BBBE" fill-rule="nonzero"></path>
                <path d="M20.056657,9 C18.9100235,9 17.7748045,9.13719203 16.6825076,9.40792304 C16.1818755,9.53196412 15.8929295,9.98177538 16.0370723,10.412672 C16.1560279,10.7683971 16.5332708,11 16.943059,11 C17.0294692,11 17.1173888,10.9896903 17.2047423,10.9680968 C18.1272375,10.7394975 19.086806,10.6235743 20.056657,10.6235743 C20.577571,10.6235743 21,10.260056 21,9.81178715 C21,9.36351829 20.577571,9 20.056657,9 Z" id="Shape" fill="#B8BBBE" fill-rule="nonzero"></path>
                <circle id="Oval-4" stroke="#38393C" stroke-width="2" cx="2.5" cy="2.5" r="2.5"></circle>
                <circle id="Oval-4-Copy" stroke="#38393C" stroke-width="2" cx="34.5" cy="2.5" r="2.5"></circle>
                <circle id="Oval-4-Copy-2" stroke="#38393C" stroke-width="2" cx="34.5" cy="33.5" r="2.5"></circle>
                <circle id="Oval-4-Copy-3" stroke="#38393C" stroke-width="2" cx="2.5" cy="33.5" r="2.5"></circle>
            </g>
        </g>
    </g>
</svg>