<svg xmlns="http://www.w3.org/2000/svg" xmlns:xlink="http://www.w3.org/1999/xlink" width="39" height="40" viewBox="0 0 39 40"> <defs> <path id="a" d="M201 1532c0 11.03-7.83 20-17.45 20-.7 0-1.38-.05-2.06-.14a15.89 15.89 0 0 1-11.99-3.44l-.12-.1a18.76 18.76 0 0 1-3.31-3.5 20.86 20.86 0 0 1-2.41-4.32 22.36 22.36 0 0 1-.96-14.09 21.07 21.07 0 0 1 1.26-3.59l.04-.11a20.53 20.53 0 0 1 2.6-4.22l.08-.1c3.19-3.93 7.73-6.39 12.77-6.39.66 0 1.33.05 2.04.14a15.6 15.6 0 0 1 2.06-.14c9.62 0 17.45 8.97 17.45 20zm-24.46-18.32c-1.09.24-2.13.61-3.13 1.08h1.32l.56-.37.37-.22.67-.37.21-.12zm-7.48 29.44l-.17-.31-.44-.81-.15-.31-.34-.72h-2.59c.47.97 1 1.89 1.61 2.75h2.45l-.37-.6zm-4.76-17.33h2.67l.28-.89.08-.26.35-.92h-2.62c-.29.67-.55 1.36-.76 2.07zm-.9 6.9h2.72l-.01-.69c0-.45.01-.9.04-1.35v-.03h-2.73c-.03.46-.05.92-.05 1.38l.03.69zm.08 1.38c.07.7.17 1.39.3 2.07h2.7l-.18-1.14-.01-.07c-.03-.28-.07-.57-.09-.86zm.44-6.9c-.16.68-.27 1.37-.36 2.07h2.71l.03-.17v-.07c.06-.44.13-.88.22-1.31l.05-.27.05-.25zm.18 10.35c.19.71.42 1.4.68 2.07h2.63l-.07-.23-.09-.26c-.14-.4-.26-.82-.38-1.24l-.02-.09-.06-.25zm5.54-17.57l.25-.36h-2.4c-.66.85-1.26 1.77-1.78 2.75h2.57l.02-.03.15-.31a20.89 20.89 0 0 1 1.19-2.05zm-.96-1.74h2.26l.32-.38.37-.41.4-.42.41-.41.5-.45h-1.89c-.84.6-1.64 1.3-2.37 2.07zm1.46 28.96h2.06l-.16-.17-.41-.42-.37-.41-.64-.76-.23-.31h-2.35c.64.76 1.35 1.45 2.1 2.07zm6.19 3.03l-.67-.37-.37-.22a14.9 14.9 0 0 1-.83-.55l-.42-.31-.27-.2h-1.66a14.8 14.8 0 0 0 4.43 1.77l-.21-.12zm23.3-18.2c0-10.27-7.21-18.62-16.08-18.62-.54 0-1.08.03-1.61.09l-.26.04a.36.36 0 0 0-.11.02l-.71.11-.06.02a8.05 8.05 0 0 0-.77.17l-.62.18-.18.06-.52.17-.42.17-.28.11a17.08 17.08 0 0 0-8.92 9.36l-.11.26-.2.52-.12.34a6.21 6.21 0 0 0-.28.84l-.13.44-.11.41-.1.43-.1.42-.09.44-.07.43-.07.46-.06.42-.06.5-.04.39-.04.58-.02.32-.02.92.02.92.02.32.04.58.04.39c.02.17.03.34.06.5l.06.42.07.46.07.43a33.54 33.54 0 0 1 .19.86l.1.43.11.41.13.44.12.38a6.21 6.21 0 0 0 .28.8 8 8 0 0 0 .2.52l.11.26a12.79 12.79 0 0 0 .34.76 17.08 17.08 0 0 0 8.58 8.6l.28.11.42.16c.17.07.34.12.52.18l.18.06.62.17.1.03c.22.06.45.11.68.15l.05.02.71.11.11.02.26.04c.53.06 1.07.09 1.61.09 8.87 0 16.08-8.35 16.08-18.62z"/> <path id="b" d="M171.93 1532.24c0-.48.02-.96.07-1.42.04-.42-.36-.78-.89-.82-.53-.03-.99.28-1.03.7-.05.5-.08 1.02-.08 1.54v.01c0 .42.43.75.96.75s.97-.35.97-.76z"/> <path id="c" d="M196.46 1528.42c.09.35.41.58.76.58l.19-.02a.78.78 0 0 0 .57-.94c-.13-.51-.29-1.02-.46-1.52a.78.78 0 0 0-1.48.5c.16.45.3.93.42 1.4z"/> <path id="d" d="M193.4 1541.32c-.36.42-.75.83-1.14 1.21a.83.83 0 0 0 .01 1.22.92.92 0 0 0 1.27-.01c.44-.41.86-.86 1.26-1.33a.85.85 0 0 0-.13-1.22.93.93 0 0 0-1.27.13z"/> <path id="e" d="M172.54 1536.58a.79.79 0 0 0-.95-.56.78.78 0 0 0-.57.94c.13.51.29 1.02.46 1.52.11.32.41.52.74.52a.77.77 0 0 0 .74-1.02c-.16-.45-.3-.92-.42-1.4z"/> <path id="f" d="M190.63 1517.77c-.47-.25-.96-.49-1.46-.7-.4-.17-.88-.03-1.08.3-.2.33-.04.73.35.9.45.18.89.39 1.31.62.14.08.29.11.44.11.27 0 .52-.11.68-.3.24-.31.14-.73-.24-.93z"/> <path id="g" d="M188.85 1545.08c-.44.2-.89.38-1.34.54-.41.14-.61.55-.46.92a.8.8 0 0 0 .74.46c.09 0 .18-.01.28-.05.5-.17 1.01-.37 1.5-.6.39-.18.54-.61.34-.96a.83.83 0 0 0-1.06-.31z"/> <path id="h" d="M194.89 1522.7c-.24-.49-.5-.95-.78-1.4-.22-.35-.61-.4-.88-.11-.27.29-.31.82-.09 1.18.25.4.49.83.71 1.26.12.24.32.37.52.37.12 0 .25-.05.35-.14.29-.26.37-.78.17-1.16z"/> <path id="i" d="M197.04 1531c-.54 0-.97.36-.97.78a13 13 0 0 1-.07 1.4c-.04.42.36.79.89.82h.08c.49 0 .92-.3.96-.7.04-.5.07-1.01.07-1.52v-.05c0-.41-.43-.73-.96-.73z"/> <path id="j" d="M196.5 1537.04a.73.73 0 0 0-.94.49c-.15.47-.31.93-.5 1.38-.16.39.01.85.38 1.03.1.04.2.06.3.06.28 0 .55-.18.67-.47.2-.49.39-.99.55-1.5a.8.8 0 0 0-.46-.99z"/> <path id="k" d="M185.33 1516.08a16.3 16.3 0 0 0-1.56-.08h-.03a.72.72 0 0 0-.74.71c0 .39.36.71.77.71.46 0 .93.03 1.38.08h.09c.38 0 .71-.27.75-.63.05-.39-.25-.74-.66-.79z"/> <path id="l" d="M174.15 1540.37c-.2-.38-.59-.48-.87-.23-.29.26-.37.78-.17 1.16.24.48.5.95.78 1.39.12.21.3.31.48.31.14 0 .28-.06.4-.19.27-.29.31-.82.09-1.18-.25-.4-.49-.82-.71-1.26z"/> <path id="m" d="M172.56 1525.07a.71.71 0 0 0-.97.4c-.2.49-.39.99-.55 1.5-.13.41.07.85.46.99a.73.73 0 0 0 .93-.49c.15-.46.32-.93.51-1.38a.8.8 0 0 0-.38-1.02z"/> <path id="n" d="M184.22 1546.11c-.46 0-.93-.04-1.39-.1-.4-.06-.78.3-.82.82-.05.52.24.99.65 1.05.51.08 1.04.12 1.56.12h.07c.41 0 .71-.42.71-.94 0-.53-.37-.95-.78-.95z"/> <path id="o" d="M175.46 1520.25c-.44.42-.86.87-1.26 1.34a.84.84 0 0 0 .13 1.21.92.92 0 0 0 1.27-.12c.36-.42.74-.83 1.14-1.21a.83.83 0 0 0-.01-1.22.93.93 0 0 0-1.27 0z"/> <path id="p" d="M179.94 1517.05c-.51.17-1.02.37-1.51.6-.39.18-.54.61-.34.96.13.25.41.39.7.39.12 0 .24-.03.35-.08.44-.2.89-.38 1.35-.54a.7.7 0 0 0 .46-.92c-.15-.37-.61-.55-1.01-.41z"/> <path id="q" d="M179.56 1544.74c-.45-.19-.89-.4-1.31-.63-.37-.2-.87-.12-1.12.19-.24.31-.14.73.24.93.47.25.96.49 1.46.7.11.05.24.07.36.07.3 0 .58-.13.72-.37.2-.32.05-.73-.35-.89z"/> <path id="r" d="M182 1529.89v-.97a6.2 6.2 0 0 0 2.06-.44c.38-.21.67-.7.87-1.48H186v10h-1.45v-7.11z"/> </defs> <g transform="translate(-162 -1512)"> <use fill="#38393c" xlink:href="#a"/> </g> <g transform="translate(-162 -1512)"> <use fill="#b8bbbe" xlink:href="#b"/> </g> <g transform="translate(-162 -1512)"> <use fill="#b8bbbe" xlink:href="#c"/> </g> <g transform="translate(-162 -1512)"> <use fill="#b8bbbe" xlink:href="#d"/> </g> <g transform="translate(-162 -1512)"> <use fill="#b8bbbe" xlink:href="#e"/> </g> <g transform="translate(-162 -1512)"> <use fill="#b8bbbe" xlink:href="#f"/> </g> <g transform="translate(-162 -1512)"> <use fill="#b8bbbe" xlink:href="#g"/> </g> <g transform="translate(-162 -1512)"> <use fill="#b8bbbe" xlink:href="#h"/> </g> <g transform="translate(-162 -1512)"> <use fill="#b8bbbe" xlink:href="#i"/> </g> <g transform="translate(-162 -1512)"> <use fill="#b8bbbe" xlink:href="#j"/> </g> <g transform="translate(-162 -1512)"> <use fill="#b8bbbe" xlink:href="#k"/> </g> <g transform="translate(-162 -1512)"> <use fill="#b8bbbe" xlink:href="#l"/> </g> <g transform="translate(-162 -1512)"> <use fill="#b8bbbe" xlink:href="#m"/> </g> <g transform="translate(-162 -1512)"> <use fill="#b8bbbe" xlink:href="#n"/> </g> <g transform="translate(-162 -1512)"> <use fill="#b8bbbe" xlink:href="#o"/> </g> <g transform="translate(-162 -1512)"> <use fill="#b8bbbe" xlink:href="#p"/> </g> <g transform="translate(-162 -1512)"> <use fill="#b8bbbe" xlink:href="#q"/> </g> <g transform="translate(-162 -1512)"> <use fill="#38393c" xlink:href="#r"/> </g> </svg>