<svg xmlns="http://www.w3.org/2000/svg" xmlns:xlink="http://www.w3.org/1999/xlink" width="43" height="35" viewBox="0 0 43 35"> <defs> <path id="a" d="M162 1236a1 1 0 0 1 1-1h25a1 1 0 0 1 1 1v20a1 1 0 0 1-1 1h-25a1 1 0 0 1-1-1z"/> <path id="c" d="M178 1249v20h26v-19.92z"/> <path id="d" d="M169 1240h9"/> <path id="e" d="M181 1239.8h3.51"/> <path id="f" d="M178 1261v-12h13"/> <clipPath id="b"> <use fill="#fff" xlink:href="#a"/> </clipPath> </defs> <g transform="translate(-162 -1235)"> <use fill="#fff" fill-opacity="0" stroke="#38393c" stroke-miterlimit="50" stroke-width="3.2" clip-path="url(&quot;#b&quot;)" xlink:href="#a"/> </g> <g transform="translate(-162 -1235)"> <use fill="#fff" fill-opacity="0" stroke="#b8bbbe" stroke-dasharray="4 4" stroke-linecap="round" stroke-miterlimit="50" stroke-width="1.6" xlink:href="#c"/> </g> <g transform="translate(-162 -1235)"> <use fill="#fff" fill-opacity="0" stroke="#38393c" stroke-linecap="round" stroke-miterlimit="50" stroke-width="1.6" xlink:href="#d"/> </g> <g transform="translate(-162 -1235)"> <use fill="#fff" fill-opacity="0" stroke="#38393c" stroke-linecap="round" stroke-miterlimit="50" stroke-width="1.6" xlink:href="#e"/> </g> <g transform="translate(-162 -1235)"> <use fill="#fff" fill-opacity="0" stroke="#38393c" stroke-linecap="round" stroke-miterlimit="50" stroke-width="1.6" xlink:href="#f"/> </g> </svg>