<svg xmlns="http://www.w3.org/2000/svg" xmlns:xlink="http://www.w3.org/1999/xlink" width="46" height="46" viewBox="0 0 46 46"><defs><path id="a" d="M948.1 1519.05c0 7.19-5.86 13.05-13.05 13.05a13.06 13.06 0 1 1 13.05-13.05zm-1.88 0a11.18 11.18 0 0 0-22.34 0 11.18 11.18 0 0 0 22.34 0z"/><path id="b" d="M938.74 1522.03c0 1.68-1.25 3.1-2.93 3.49v.37a.94.94 0 1 1-1.88 0v-.37a3.67 3.67 0 0 1-2.93-3.49.94.94 0 1 1 1.88 0c0 .65.42 1.22 1.05 1.51v-3.34a3.67 3.67 0 0 1-2.93-3.49c0-1.69 1.25-3.1 2.93-3.5v-.27a.94.94 0 1 1 1.88 0v.27a3.68 3.68 0 0 1 2.93 3.5c0 .51-.42.93-.94.93a.94.94 0 0 1-.94-.93 1.7 1.7 0 0 0-1.05-1.52v3.34a3.68 3.68 0 0 1 2.93 3.5zm-4.81-6.84a1.7 1.7 0 0 0-1.05 1.52c0 .65.42 1.22 1.05 1.51zm2.93 6.84a1.7 1.7 0 0 0-1.05-1.52v3.03a1.71 1.71 0 0 0 1.05-1.51z"/><path id="c" d="M958.74 1542.03c0 1.68-1.25 3.1-2.93 3.49v.37a.94.94 0 1 1-1.88 0v-.37a3.67 3.67 0 0 1-2.93-3.49.94.94 0 1 1 1.88 0c0 .65.42 1.22 1.05 1.51v-3.34a3.67 3.67 0 0 1-2.93-3.49c0-1.69 1.25-3.1 2.93-3.5v-.27a.94.94 0 1 1 1.88 0v.27a3.68 3.68 0 0 1 2.93 3.5c0 .51-.42.93-.94.93a.94.94 0 0 1-.94-.93 1.7 1.7 0 0 0-1.05-1.52v3.34a3.68 3.68 0 0 1 2.93 3.5zm-4.81-6.84a1.7 1.7 0 0 0-1.05 1.52c0 .65.42 1.22 1.05 1.51zm2.93 6.84a1.7 1.7 0 0 0-1.05-1.52v3.03a1.71 1.71 0 0 0 1.05-1.51z"/><path id="d" d="M968.1 1539.05c0 7.19-5.86 13.05-13.05 13.05a13.06 13.06 0 1 1 13.05-13.05zm-1.88 0a11.18 11.18 0 0 0-22.34 0 11.18 11.18 0 0 0 22.34 0z"/><path id="e" d="M937 1544.19c-3-1.57-5.06-3.36-6.45-5.63l.04.01a.93.93 0 1 0 .6-1.77l-2.2-.75a.94.94 0 0 0-1.19.59l-.75 2.2a.94.94 0 0 0 1.78.6l.02-.06c1.56 2.64 3.88 4.69 7.28 6.47a.93.93 0 0 0 1.27-.39.94.94 0 0 0-.4-1.27z"/><path id="f" d="M962.44 1518.23l.14.05-.14-.05-.02-.01.02.01a.95.95 0 0 0-1.19.59l-.02.07c-1.73-2.86-4.33-5.1-7.89-6.8a.95.95 0 0 0-1.25.44.96.96 0 0 0 .44 1.26c3.19 1.52 5.46 3.43 6.99 5.91l-.03-.01a.93.93 0 1 0-.6 1.77l2.05.7c.57.19 1.2-.06 1.37-.63.22-.71.72-2.11.72-2.11a.94.94 0 0 0-.59-1.19z"/><path id="g" d="M962.02 1518.01l-.02-.01.02.01z"/><path id="h" d="M962.03 1518.01l-.03-.01.03.01z"/><path id="i" d="M962.02 1518.01l-.02-.01.02.01z"/><path id="j" d="M963 1518c.01 0 .01 0 0 0z"/><path id="k" d="M962.02 1518.01l-.02-.01.02.01z"/><path id="l" d="M962.01 1518c-.01 0-.01 0 0 0z"/><path id="m" d="M928.75 1511.17a10.36 10.36 0 0 0-3.75 8.03c0 .44.34.8.77.8.42 0 .77-.36.77-.8a8.7 8.7 0 0 1 3.17-6.78.81.81 0 0 0 .12-1.12.76.76 0 0 0-1.08-.13z"/><path id="n" d="M936.06 1509c-1.15 0-2.29.14-3.38.41-.5.12-.79.57-.64 1 .12.36.49.59.9.59.09 0 .18-.01.26-.03.93-.23 1.89-.35 2.86-.35.52 0 .94-.36.94-.81 0-.45-.42-.81-.94-.81z"/><path id="o" d="M948.75 1531.17a10.36 10.36 0 0 0-3.75 8.03c0 .44.34.8.77.8.42 0 .77-.36.77-.8a8.7 8.7 0 0 1 3.17-6.78.81.81 0 0 0 .12-1.12.76.76 0 0 0-1.08-.13z"/><path id="p" d="M956.06 1529c-1.15 0-2.29.14-3.38.41-.5.12-.79.57-.64 1 .12.36.49.59.9.59.09 0 .18-.01.26-.03.93-.23 1.89-.35 2.86-.35.52 0 .94-.36.94-.81 0-.45-.42-.81-.94-.81z"/></defs><desc>Generated with Avocode.</desc><g transform="translate(-922 -1506)"><use fill="#38393c" xlink:href="#a"/></g><g transform="translate(-922 -1506)"><use fill="#b8bbbe" xlink:href="#b"/></g><g transform="translate(-922 -1506)"><use fill="#b8bbbe" xlink:href="#c"/></g><g transform="translate(-922 -1506)"><use fill="#38393c" xlink:href="#d"/></g><g transform="translate(-922 -1506)"><use fill="#38393c" xlink:href="#e"/></g><g transform="translate(-922 -1506)"><use fill="#38393c" xlink:href="#f"/></g><g transform="translate(-922 -1506)"><use fill="#38393c" xlink:href="#g"/></g><g transform="translate(-922 -1506)"><use fill="#38393c" xlink:href="#h"/></g><g transform="translate(-922 -1506)"><use fill="#38393c" xlink:href="#i"/></g><g transform="translate(-922 -1506)"><use fill="#38393c" xlink:href="#g"/></g><g transform="translate(-922 -1506)"><use fill="#38393c" xlink:href="#j"/></g><g transform="translate(-922 -1506)"><use fill="#38393c" xlink:href="#k"/></g><g transform="translate(-922 -1506)"><use fill="#38393c" xlink:href="#l"/></g><g transform="translate(-922 -1506)"><use fill="#b8bbbe" xlink:href="#m"/></g><g transform="translate(-922 -1506)"><use fill="#b8bbbe" xlink:href="#n"/></g><g transform="translate(-922 -1506)"><use fill="#b8bbbe" xlink:href="#o"/></g><g transform="translate(-922 -1506)"><use fill="#b8bbbe" xlink:href="#p"/></g></svg>