<svg xmlns="http://www.w3.org/2000/svg" xmlns:xlink="http://www.w3.org/1999/xlink" width="30" height="26"
     viewBox="0 0 30 26">
    <defs>
        <path id="a" d="M713 7472c-1.31 0-2 2.01-2 4 0 1.99.69 4 2 4s2-2.01 2-4c0-1.99-.69-4-2-4"/>
        <path id="b"
              d="M718 7481c-5.85 0-10-.39-10-5.5 0-1.28.49-2.38 1.47-3.26.81-.73 1.95-.93 3.3-.93.71 0 1.48.06 2.29.11.92.07 1.88.13 2.93.13h.05c1.02 0 1.98-.06 2.91-.13 2.33-.16 4.35-.3 5.59.82a4.25 4.25 0 0 1 1.46 3.26c0 5.12-3.92 5.5-10 5.5zm11.61-21.68a.51.51 0 0 0-.52-.32c-.12.02-2.95.36-7.22 3.29a19.1 19.1 0 0 0-3.87-.29c-1.73 0-3.03.1-3.87.29-4.27-2.93-7.1-3.27-7.22-3.29a.51.51 0 0 0-.52.32c-1.16 2.96-1.28 6-1.08 7.14a9.34 9.34 0 0 0-2.31 6.34c0 7.86 4.36 12.2 12.27 12.2h5.46c7.91 0 12.27-4.34 12.27-12.2 0-2.47-.76-4.54-2.31-6.34.2-1.14.08-4.18-1.08-7.14z"/>
        <path id="c" d="M723 7472c-1.31 0-2 2.01-2 4 0 1.99.69 4 2 4s2-2.01 2-4c0-1.99-.69-4-2-4"/>
    </defs>
    <g transform="translate(-703 -7459)">
        <use fill="#9aa1ab" xlink:href="#a"/>
    </g>
    <g transform="translate(-703 -7459)">
        <use fill="#9aa1ab" xlink:href="#b"/>
    </g>
    <g transform="translate(-703 -7459)">
        <use fill="#9aa1ab" xlink:href="#c"/>
    </g>
</svg>