<svg xmlns="http://www.w3.org/2000/svg" xmlns:xlink="http://www.w3.org/1999/xlink" width="69" height="61"
     viewBox="0 0 69 61">
    <defs>
        <path id="a"
              d="M279.38 2350.26a3.8 3.8 0 0 0-1.38 2.93v3.43c0 .77.61 1.38 1.38 1.38.77 0 1.38-.61 1.38-1.38v-3.43c0-.3.14-.6.37-.79a38.5 38.5 0 0 1 6.83-4.39c.54-.26.91-.84.91-1.44v-4.82c0-.46-.24-.89-.62-1.14a.91.91 0 0 1-.39-.73v-5c0-1.72 1.4-3.11 3.11-3.11h1.07a3.1 3.1 0 0 1 3.11 3.11v5c0 .3-.14.56-.39.73-.39.25-.61.68-.61 1.14v4.82c0 .62.35 1.18.89 1.44.61.31 3.84 1.94 6.83 4.39.23.19.37.49.37.79v3.43c0 .77.61 1.38 1.38 1.38.77 0 1.38-.61 1.38-1.38v-3.43c0-1.14-.5-2.22-1.38-2.93a41.46 41.46 0 0 0-6.71-4.4v-3.48c.64-.67 1-1.56 1-2.51v-4.99a5.88 5.88 0 0 0-5.87-5.88h-1.07a5.88 5.88 0 0 0-5.86 5.88v5c0 .95.36 1.85 1 2.52v3.46a40.58 40.58 0 0 0-6.73 4.4z"/>
        <path id="b"
              d="M324.62 2390c.77 0 1.38-.61 1.38-1.38v-3.42c0-1.15-.5-2.22-1.38-2.94a40.55 40.55 0 0 0-6.72-4.39v-3.48a3.63 3.63 0 0 0 1.01-2.51v-5a5.89 5.89 0 0 0-5.87-5.88h-1.08a5.89 5.89 0 0 0-5.87 5.88v5c0 .95.37 1.84 1.01 2.51v3.48c-1.31.68-4.1 2.24-6.72 4.39a3.79 3.79 0 0 0-1.38 2.94v3.42c0 .77.61 1.38 1.38 1.38.77 0 1.38-.61 1.38-1.38v-3.42c0-.31.14-.6.38-.8a36.11 36.11 0 0 1 6.83-4.38c.54-.27.89-.84.89-1.44v-4.82c0-.46-.24-.89-.61-1.14a.91.91 0 0 1-.4-.73v-5c0-1.72 1.4-3.11 3.11-3.11h1.08a3.11 3.11 0 0 1 3.11 3.11v5c0 .29-.14.56-.4.73-.39.25-.61.68-.61 1.14v4.82c0 .61.35 1.17.89 1.44.62.3 3.85 1.94 6.83 4.38.24.2.38.49.38.8v3.42c0 .77.63 1.38 1.38 1.38z"/>
        <path id="c"
              d="M282.62 2382.26a40.55 40.55 0 0 0-6.72-4.39v-3.48a3.63 3.63 0 0 0 1.01-2.51v-5a5.89 5.89 0 0 0-5.87-5.88h-1.08a5.89 5.89 0 0 0-5.87 5.88v5c0 .95.37 1.84 1.01 2.51v3.48c-1.31.68-4.1 2.24-6.72 4.39a3.79 3.79 0 0 0-1.38 2.94v3.42c0 .77.61 1.38 1.38 1.38.77 0 1.38-.61 1.38-1.38v-3.42c0-.31.14-.6.38-.8a36.11 36.11 0 0 1 6.83-4.38c.54-.27.89-.84.89-1.44v-4.82c0-.46-.24-.89-.61-1.14a.91.91 0 0 1-.4-.73v-5c0-1.72 1.4-3.11 3.11-3.11h1.08a3.11 3.11 0 0 1 3.11 3.11v5c0 .29-.14.56-.4.73-.39.25-.61.68-.61 1.14v4.82c0 .61.35 1.17.89 1.44.62.3 3.85 1.92 6.83 4.38.24.2.38.49.38.8v3.42c0 .77.61 1.38 1.38 1.38.77 0 1.38-.61 1.38-1.38v-3.42c0-1.15-.5-2.22-1.38-2.94z"/>
        <path id="d"
              d="M299.89 2372.81c.23.12.47.18.7.18.48 0 .97-.25 1.22-.69.39-.64.16-1.47-.51-1.84l-7.89-4.36v-8.75c0-.75-.62-1.35-1.41-1.35-.78 0-1.4.6-1.4 1.35v8.75l-7.9 4.38c-.66.36-.91 1.2-.51 1.84a1.44 1.44 0 0 0 1.92.5l7.89-4.38z"/>
    </defs>
    <g transform="translate(-257 -2329)">
        <use fill="#2c2f33" xlink:href="#a"/>
    </g>
    <g transform="translate(-257 -2329)">
        <use fill="#2c2f33" xlink:href="#b"/>
    </g>
    <g transform="translate(-257 -2329)">
        <use fill="#2c2f33" xlink:href="#c"/>
    </g>
    <g transform="translate(-257 -2329)">
        <use fill="#18bd5c" xlink:href="#d"/>
    </g>
</svg>