<svg xmlns="http://www.w3.org/2000/svg" xmlns:xlink="http://www.w3.org/1999/xlink" width="70" height="62" viewBox="0 0 70 62"> <defs> <path id="a" d="M1134.43 2345.99a3.96 3.96 0 0 0-1.43 3.04v3.54a1.43 1.43 0 1 0 2.86 0v-3.54c0-.32.15-.62.39-.82a39.88 39.88 0 0 1 7.08-4.54c.56-.28.94-.87.94-1.49v-4.99c0-.47-.25-.92-.64-1.18a.93.93 0 0 1-.4-.75v-5.18a3.22 3.22 0 0 1 3.22-3.22h1.11a3.23 3.23 0 0 1 3.23 3.22v5.18a.9.9 0 0 1-.41.75c-.4.26-.63.71-.63 1.18v4.99c0 .64.36 1.21.92 1.49.64.32 3.99 2.01 7.08 4.54.24.2.39.5.39.82v3.54a1.43 1.43 0 1 0 2.86 0v-3.54a3.9 3.9 0 0 0-1.43-3.04 43.5 43.5 0 0 0-6.96-4.55v-3.6a3.74 3.74 0 0 0 1.04-2.6v-5.16a6.1 6.1 0 0 0-6.09-6.08h-1.11a6.09 6.09 0 0 0-6.08 6.08v5.18c0 .98.37 1.9 1.04 2.6v3.58a42.6 42.6 0 0 0-6.98 4.55z"/> <path id="b" d="M1180.57 2386c.79 0 1.43-.64 1.43-1.43v-3.54c0-1.18-.52-2.3-1.43-3.03a42.36 42.36 0 0 0-6.97-4.55v-3.6a3.72 3.72 0 0 0 1.04-2.6v-5.17a6.09 6.09 0 0 0-6.08-6.08h-1.12a6.09 6.09 0 0 0-6.08 6.08v5.17c0 .98.37 1.91 1.04 2.6v3.6a42.36 42.36 0 0 0-6.97 4.55 3.9 3.9 0 0 0-1.43 3.03v3.54a1.43 1.43 0 1 0 2.86 0v-3.54c0-.32.15-.62.39-.82a38.96 38.96 0 0 1 7.09-4.54c.56-.27.92-.86.92-1.49v-4.98c0-.47-.25-.92-.64-1.18a.95.95 0 0 1-.4-.75v-5.17a3.23 3.23 0 0 1 3.22-3.23h1.12a3.23 3.23 0 0 1 3.22 3.23v5.17a.9.9 0 0 1-.4.75 1.4 1.4 0 0 0-.64 1.18v4.98c0 .64.36 1.22.92 1.49.64.32 3.99 2.01 7.09 4.54.24.2.39.5.39.82v3.54c0 .79.65 1.43 1.43 1.43z"/> <path id="c" d="M1138.57 2378a42.36 42.36 0 0 0-6.97-4.55v-3.6a3.72 3.72 0 0 0 1.04-2.6v-5.17a6.09 6.09 0 0 0-6.08-6.08h-1.12a6.09 6.09 0 0 0-6.08 6.08v5.17c0 .98.37 1.91 1.04 2.6v3.6a42.36 42.36 0 0 0-6.97 4.55 3.9 3.9 0 0 0-1.43 3.03v3.54a1.43 1.43 0 1 0 2.86 0v-3.54c0-.32.15-.62.39-.82a38.96 38.96 0 0 1 7.09-4.54c.56-.27.92-.86.92-1.49v-4.98c0-.47-.25-.92-.64-1.18a.95.95 0 0 1-.4-.75v-5.17a3.23 3.23 0 0 1 3.22-3.23h1.12a3.23 3.23 0 0 1 3.22 3.23v5.17a.9.9 0 0 1-.4.75 1.4 1.4 0 0 0-.64 1.18v4.98c0 .64.36 1.22.92 1.49.64.32 3.99 2 7.09 4.54.24.2.39.5.39.82v3.54a1.43 1.43 0 1 0 2.86 0v-3.54c0-1.18-.52-2.3-1.43-3.03z"/> <path id="d" d="M1154.89 2367.81c.23.12.47.18.7.18.48 0 .97-.25 1.22-.69.39-.64.16-1.47-.51-1.84l-7.89-4.36v-8.75c0-.75-.62-1.35-1.41-1.35-.78 0-1.4.6-1.4 1.35v8.75l-7.9 4.38c-.66.36-.91 1.2-.51 1.84a1.44 1.44 0 0 0 1.92.5l7.89-4.38z"/> </defs> <g transform="translate(-1112 -2324)"> <use fill="#2c2f33" xlink:href="#a"/> </g> <g transform="translate(-1112 -2324)"> <use fill="#2c2f33" xlink:href="#b"/> </g> <g transform="translate(-1112 -2324)"> <use fill="#2c2f33" xlink:href="#c"/> </g> <g transform="translate(-1112 -2324)"> <use fill="#ff505a" xlink:href="#d"/> </g> </svg>