<svg xmlns="http://www.w3.org/2000/svg" xmlns:xlink="http://www.w3.org/1999/xlink" width="26" height="26" viewBox="0 0 26 26"><defs><path id="a" d="M668 7481.5a.5.5 0 0 1-.5.5h-4a.5.5 0 0 1-.5-.5v-7a1.5 1.5 0 1 0-3 0v7a.5.5 0 0 1-.5.5h-4a.5.5 0 0 1-.5-.5v-12c0-.28.22-.5.5-.5h4c.28 0 .5.22.5.5v.52a5 5 0 0 1 8 3.98zm-19-16a2.5 2.5 0 1 1 5 0 2.5 2.5 0 0 1-5 0zm5 16a.5.5 0 0 1-.5.5h-4a.5.5 0 0 1-.5-.5v-12c0-.28.22-.5.5-.5h4c.28 0 .5.22.5.5zm-7-22.5a2 2 0 0 0-2 2v22c0 1.1.9 2 2 2h22a2 2 0 0 0 2-2v-22a2 2 0 0 0-2-2z"/></defs><desc>Generated with Avocode.</desc><g transform="translate(-645 -7459)"><use fill="#9aa1ab" xlink:href="#a"/></g></svg>