<svg xmlns="http://www.w3.org/2000/svg" xmlns:xlink="http://www.w3.org/1999/xlink" width="117" height="40" viewBox="0 0 117 40"><defs><path id="a" d="M218 44h6.41c1.69 0 2.97.34 3.81 1.02.85.68 1.28 1.78 1.28 3.3 0 .91-.14 1.64-.41 2.17a3.77 3.77 0 0 1-1.39 1.43c.72.3 1.25.74 1.59 1.32.35.58.52 1.38.52 2.4 0 1.58-.47 2.76-1.39 3.53-.93.77-2.24 1.15-3.92 1.15H218zm6.34 9.5h-3.03v3.99h3.03c.72 0 1.25-.15 1.59-.43.35-.29.52-.82.52-1.59 0-1.31-.71-1.97-2.11-1.97zm-.1-6.67h-2.93v3.89h2.95c1.25 0 1.88-.65 1.88-1.94 0-1.3-.64-1.95-1.9-1.95zm12.24 10.45c.37.33.91.5 1.62.5 1.48 0 2.81-.05 3.98-.15l.64-.07v2.69c-1.84.45-3.42.36-4.91.36-1.81 0-3.12-.48-3.94-1.44-.81-.96-1.22-2.52-1.22-4.68 0-4.31 1.77-6.46 5.3-6.46 3.49 0 4.99 1.67 4.99 5.29v2.37h-7.05c.01.73.21 1.27.59 1.59zm3.54-4.04c0-.96-.16-1.63-.46-2-.3-.38-.84-.57-1.6-.57-.76 0-1.29.2-1.6.59-.32.39-.48 1.05-.5 1.98zm19.46 4.04c.37.33.91.5 1.62.5 1.48 0 2.81-.05 3.98-.15l.64-.07v2.69c-1.84.45-3.42.36-4.91.36-1.81 0-3.12-.48-3.94-1.44-.81-.96-1.22-2.52-1.22-4.68 0-4.31 1.77-6.46 5.3-6.46 3.49 0 4.99 1.67 4.99 5.29v2.37h-7.05c.01.73.21 1.27.59 1.59zm3.54-4.04c0-.96-.16-1.63-.46-2-.3-.38-.84-.57-1.6-.57-.76 0-1.29.2-1.6.59-.32.39-.48 1.05-.5 1.98zm-9.96-2.18h-2.96v4.92c0 .48.02.82.04 1.02.02.2.11.37.26.51.16.15.39.22.71.22l1.83-.05.14 2.57c-1.07.24-1.89.36-2.45.36-1.44 0-2.42-.33-2.95-.97-.53-.65-.79-1.85-.79-3.59v-4.99h-1.42v-2.74h1.42v-3.34h3.21v3.34h2.96zm15.01-2.74h3.43l1.92 3.72 1.95-3.72h3.43l-3.41 5.88 3.41 6.12h-3.43l-1.95-3.67-1.92 3.67h-3.43l3.29-6.02z"/><path id="b" d="M205.11 43.12v5.65l-21.56-11.12L162 48.77v-5.65L183.55 32zm0 11.3v5.65l-21.56-11.12V43.3zm-43.11 0v5.65l21.55-11.12V43.3z"/><path id="d" d="M205.11 43v16.95l-21.56 11.12L162 59.95V43l21.55 11.12z"/><linearGradient id="c" x1="183.5" x2="183.5" y1="32" y2="60" gradientUnits="userSpaceOnUse"><stop offset="0" stop-color="#0eb955"/><stop offset="1" stop-color="#5bd488"/></linearGradient><linearGradient id="e" x1="183.5" x2="183.5" y1="73.15" y2="44.59" gradientUnits="userSpaceOnUse"><stop offset="0" stop-color="#fd1f1e"/><stop offset="1" stop-color="#ff6530"/></linearGradient></defs><desc>Generated with Avocode.</desc><g transform="translate(-162 -32)"><use xlink:href="#a"/></g><g transform="translate(-162 -32)"><use fill="url(#c)" xlink:href="#b"/></g><g transform="translate(-162 -32)"><use fill="url(#e)" xlink:href="#d"/></g></svg>