<svg xmlns="http://www.w3.org/2000/svg" width="33" height="23" viewBox="0 0 33 23">
  <g fill="none" fill-rule="evenodd" transform="translate(-5 -10)">
    <rect width="43" height="43"/>
    <g fill="#9AA1AB" fill-rule="nonzero" transform="translate(5 10)">
      <path d="M15.7854274,15.1474707 L12.0979004,12.6884766 L1,22.3999114 C1.43097643,22.7697077 2.01279461,23 2.65447063,23 L31.3527123,23 C31.991994,23 32.5714179,22.7697077 33,22.3999114 L21.682373,12.2253418 L18.1415974,15.0474945 L18.1415974,15.0474945 C17.461486,15.589573 16.5090141,15.6299879 15.7854274,15.1474707 Z"/>
      <path d="M33,0.632333333 C32.5690558,0.240333333 31.9896753,0 31.3456531,0 L2.64955858,0 C2.0103247,0 1.43094419,0.242666667 1,0.637 L15.7154131,12.9289684 L15.7154131,12.9289684 C16.4577484,13.5490503 17.5374523,13.549037 18.2797723,12.9289369 L33,0.632333333 Z"/>
      <polygon points="0 2 0 21 11 11.607"/>
      <polygon points="23.262 11.33 33 20.548 33 2.536"/>
    </g>
  </g>
</svg>
