<svg xmlns="http://www.w3.org/2000/svg" width="32" height="27" viewBox="0 0 32 27">
  <g fill="none" fill-rule="evenodd" transform="translate(-5 -8)">
    <rect width="43" height="43"/>
    <g fill-rule="nonzero" transform="translate(5 8)">
      <path fill="#C9D3E3" d="M31.1914721,26.9257701 L21.3474112,22.2296239 L21.2732589,0.941373134 C21.2715533,0.44441194 21.7943553,0.116946269 22.2456853,0.332301493 L31.5783147,4.78577015 C31.8132792,4.8978806 31.9627208,5.13378806 31.9627208,5.39250448 L31.9627208,26.4445254 C31.9626396,26.8379194 31.5486701,27.0962328 31.1914721,26.9257701 Z"/>
      <path fill="#B6C1D2" d="M21.3474112,22.2296239 L10.693198,17.146209 L20.9500914,0.388316418 C21.1312893,0.0922835821 21.5093604,-0.0190208955 21.8239188,0.131050746 L31.2869848,4.6468209 C31.648731,4.8194597 31.781198,5.26427463 31.5720609,5.60423284 L21.3474112,22.2296239 Z"/>
      <path fill="#9DA8BB" d="M21.3474112,22.2296239 L10.693198,17.146209 L0.927593909,1.36547463 C0.65551269,0.92581791 1.12893401,0.405241791 1.59748223,0.62881791 L10.693198,4.96920896 L21.3474112,22.2296239 Z"/>
      <path fill="#8F939A" d="M9.92194924,26.9256896 L0.304893401,22.3364955 C0.118497462,22.2475164 0,22.0604507 0,21.8552507 L0,0.688943284 C0,0.308041791 0.400974619,0.0577880597 0.746964467,0.222931343 L10.693198,4.96920896 L10.693198,26.4444448 C10.693198,26.8378388 10.2791472,27.0961522 9.92194924,26.9256896 Z"/>
    </g>
  </g>
</svg>
