<svg xmlns="http://www.w3.org/2000/svg" xmlns:xlink="http://www.w3.org/1999/xlink" width="32" height="26" viewBox="0 0 32 26"><defs><path id="a" d="M784 7465a2 2 0 0 1-2 2 2 2 0 0 1-2-2c0-1.1.9-2 2-2a2 2 0 0 1 2 2z"/><path id="b" d="M796.46 7459.56c-.12-.33-.25-.42-.46-.5-.46-.17-1.24.09-1.24.09s-27.62 9.92-29.2 11.02c-.34.24-.45.38-.51.54-.27.78.58 1.13.58 1.13l7.12 2.32s.26.03.36-.03c1.62-1.02 16.29-10.28 17.14-10.59.13-.04.23 0 .2.09-.34 1.19-13.08 12.52-13.08 12.52s-.05.06-.08.13l-.02-.01-.66 7.06s-.28 2.16 1.88 0a59.43 59.43 0 0 1 3.75-3.42 97.24 97.24 0 0 1 6.21 4.53c.57.49 1.05.57 1.45.56 1.07-.04 1.38-1.23 1.38-1.23s5.03-20.25 5.2-22.96l.04-.62c0-.26-.02-.51-.06-.63"/></defs><desc>Generated with Avocode.</desc><g transform="translate(-765 -7459)"><use fill="#fff" fill-opacity="0" stroke="#303c42" stroke-linecap="round" stroke-linejoin="round" stroke-miterlimit="50" xlink:href="#a"/></g><g transform="translate(-765 -7459)"><use fill="#9aa1ab" xlink:href="#b"/></g></svg>