<svg xmlns="http://www.w3.org/2000/svg" xmlns:xlink="http://www.w3.org/1999/xlink" width="38" height="38" viewBox="0 0 38 38"> <defs> <path id="a" d="M707 2919a19 19 0 1 1 38 0 19 19 0 0 1-38 0z"/> <path id="b" d="M733.97 2922.17a.6.6 0 0 0-.73-.37l-.76.25c.47-.95.71-1.99.71-3.05 0-3.86-3.18-7-7.1-7a7.05 7.05 0 0 0-7.09 7c0 3.86 3.18 7 7.09 7 .33 0 .59-.26.59-.57a.58.58 0 0 0-.59-.58 5.9 5.9 0 0 1-5.93-5.85 5.9 5.9 0 0 1 5.93-5.85 5.9 5.9 0 0 1 5.94 5.85c0 .89-.21 1.76-.6 2.55l-.25-.78a.58.58 0 0 0-.74-.37c-.3.1-.47.42-.37.72l.68 2.08a.58.58 0 0 0 .74.37l2.11-.67c.3-.1.47-.43.37-.73z"/> </defs> <g transform="translate(-707 -2900)"> <use fill="#eaeef3" xlink:href="#a"/> </g> <g transform="translate(-707 -2900)"> <use fill="#404fa7" xlink:href="#b"/> <use fill="#fff" fill-opacity="0" stroke="#404fa7" stroke-linecap="square" stroke-miterlimit="50" stroke-width=".5" xlink:href="#b"/> </g> </svg>