<svg xmlns="http://www.w3.org/2000/svg" width="38" height="38" viewBox="0 0 38 38">
  <g fill="none" fill-rule="evenodd" stroke="#404FA7" transform="translate(1 1)">
    <circle cx="18" cy="18" r="18" fill="#EEF2F6" stroke-width="2"/>
    <path fill="#404FA7" fill-rule="nonzero" stroke-linecap="square" d="M27.4637653,22.5782098 C27.3380795,22.1907672 26.9226034,21.9789574 26.5357056,22.1046033 L25.577948,22.4162689 C26.1646585,21.2010033 26.4719494,19.8646361 26.4719494,18.5 C26.4719494,13.5373705 22.4409295,9.5 17.4859747,9.5 C12.5310788,9.5 8.5,13.5373705 8.5,18.5 C8.5,23.4626295 12.5310788,27.5 17.4859747,27.5 C17.89273,27.5 18.22253,27.1696852 18.22253,26.7622951 C18.22253,26.3549639 17.89273,26.0245902 17.4859747,26.0245902 C13.343352,26.0245902 9.9731106,22.6491475 9.9731106,18.5 C9.9731106,14.3509115 13.343352,10.9754098 17.4859747,10.9754098 C21.6286563,10.9754098 24.9988388,14.3509115 24.9988388,18.5 C24.9988388,19.6432656 24.7412801,20.7625115 24.2491433,21.779423 L23.921936,20.7704787 C23.7962502,20.3830951 23.3806562,20.1711082 22.9938763,20.2968721 C22.6069785,20.4228131 22.3952042,20.8389967 22.52089,21.2264393 L23.389436,23.9038951 C23.4904914,24.2156787 23.779221,24.4139148 24.0897528,24.4139148 C24.1651171,24.4139148 24.2418956,24.4022295 24.3174957,24.3776787 L26.9908379,23.5078951 C27.3776767,23.3819541 27.5894511,22.9658295 27.4637653,22.5782098 Z" transform="rotate(-90 18 18.5)"/>
  </g>
</svg>
