<svg xmlns="http://www.w3.org/2000/svg" width="35" height="29" viewBox="0 0 35 29">
  <g fill="none" fill-rule="evenodd" transform="translate(-4 -7)">
    <rect width="43" height="43"/>
    <path fill="#9AA1AB" d="M38.4221985,7.06693819 C37.9105508,6.87202112 37.0445375,7.16481026 37.0445375,7.16481026 C37.0445375,7.16481026 6.37778636,18.2362098 4.62599661,19.4622298 C4.24857404,19.7263466 4.12258352,19.8793579 4.05999999,20.0593874 C3.75696397,20.9325166 4.70038317,21.3173882 4.70038317,21.3173882 L12.6042982,23.9042436 C12.6042982,23.9042436 12.899374,23.9472522 13.0045034,23.8802581 C14.8024073,22.7391524 31.0949852,12.405791 32.0351105,12.0584141 C32.1833347,12.0143027 32.2928558,12.0650308 32.26376,12.1675897 C31.8874354,13.4934117 17.7366963,26.1271804 17.7366963,26.1271804 C17.7366963,26.1271804 17.6826219,26.1936231 17.6485853,26.2738506 L16.8923677,34.1372516 C16.8923677,34.1372516 16.5835674,36.5495915 18.9853474,34.1372516 C20.6800434,32.4351046 22.3195671,31.0111348 23.1402897,30.3180351 C25.8580067,32.2026929 28.7832376,34.2875059 30.0450642,35.3778836 C30.6791341,35.9256915 31.2094472,36.0147413 31.6461594,35.9981996 C32.8443045,35.9529854 33.1786323,34.6310231 33.1786323,34.6310231 C33.1786323,34.6310231 38.7669569,12.0410452 38.953884,9.01417896 C38.9720003,8.71753007 38.9972533,8.52867832 38.9997237,8.32493898 C39.0030176,8.0420749 38.9766666,7.75783233 38.9311014,7.62411978 C38.8051109,7.25661703 38.6557888,7.15598799 38.4221985,7.06693819 Z"/>
  </g>
</svg>
