<svg xmlns="http://www.w3.org/2000/svg" width="35" height="28" viewBox="0 0 35 28">
  <g fill="none" fill-rule="evenodd" transform="translate(-4 -8)">
    <rect width="43" height="43"/>
    <path fill="#9AA1AB" fill-rule="nonzero" d="M39,11.6129032 C37.7118035,11.8750158 36.3295871,12.2562767 35.3157895,12.516129 C36.3601836,11.5519383 37.4952835,10.1647774 38.0789474,8.90322581 C36.6423001,9.32683724 35.1069299,9.91492178 33.4736842,9.80645161 C32.1609202,8.85731585 30.2975103,8 27.9473684,8 C24.2654906,8 21.0504609,11.1663968 21.5,15.2258065 C21.0504609,15.6230198 21.1138842,16.1636791 21.5,17.0322581 C15.2700184,16.3855415 9.97946238,13.5702719 6.76315789,8.90322581 C5.81960265,10.3349339 5.46748606,11.5497416 5.84210526,12.516129 C5.46748606,15.2999423 6.73600937,17.4647197 8.60526316,18.8387097 C7.48399262,18.6924821 6.37731598,18.3736852 5.84210526,17.9354839 L5.84210526,17.9354839 C5.40846635,21.3569709 7.88426288,24.2153287 11.3684211,25.1612903 C10.565599,25.0252756 9.9313659,25.1135925 9.52631579,25.1612903 C8.81159283,25.1135925 8.36322608,25.0683639 7.68421053,25.1612903 C8.83778568,27.7931763 11.4885825,29.8373066 15.0526316,29.6774194 C12.1731424,31.7888956 9.07620927,32.9154428 5.84210526,33.2903226 C5.13292669,32.9154428 4.56205974,32.8809722 4,32.3870968 C7.1778565,34.8282242 10.9505996,36 15.0526316,36 C28.2132912,36 35.4329108,25.225622 35.3157895,16.1290323 L35.3157895,15.2258065 C36.8194736,13.975189 38.0398432,12.7301914 39,11.6129032 Z"/>
  </g>
</svg>
