<?xml version="1.0" standalone="no"?>
<!DOCTYPE svg PUBLIC "-//W3C//DTD SVG 20010904//EN"
 "http://www.w3.org/TR/2001/REC-SVG-20010904/DTD/svg10.dtd">
<svg version="1.0" xmlns="http://www.w3.org/2000/svg"
 width="1872.000000pt" height="1872.000000pt" viewBox="0 0 1872.000000 1872.000000"
 preserveAspectRatio="xMidYMid meet">
<metadata>
Created by potrace 1.11, written by Peter Selinger 2001-2013
</metadata>
<g transform="translate(0.000000,1872.000000) scale(0.100000,-0.100000)"
fill="#000000" stroke="none">
<path d="M3320 12494 c-69 -36 -213 -111 -320 -166 -107 -55 -201 -104 -207
-110 -7 -6 -13 -7 -13 -3 0 4 -6 3 -12 -2 -14 -11 -158 -87 -448 -236 -304
-156 -491 -252 -625 -322 -214 -111 -420 -218 -595 -307 -204 -105 -493 -255
-705 -365 -88 -45 -213 -108 -277 -140 l-117 -58 2 -1374 2 -1374 115 -59
c252 -130 315 -162 320 -163 3 0 12 -5 20 -10 22 -14 66 -37 650 -337 107 -55
245 -126 305 -158 103 -54 387 -200 588 -303 48 -25 95 -51 103 -57 7 -7 14
-9 14 -5 0 4 6 3 13 -3 6 -5 102 -56 212 -112 110 -56 268 -137 350 -180 83
-43 206 -107 275 -143 69 -35 204 -105 301 -155 l176 -91 104 53 c57 29 160
82 229 117 69 35 127 66 130 69 7 8 184 93 189 90 2 -1 7 2 10 7 3 5 38 25 76
43 39 19 91 47 118 62 26 15 47 24 47 20 0 -4 4 -2 8 3 4 6 68 41 142 79 74
38 194 99 265 136 72 37 186 96 255 131 69 35 127 66 130 69 5 5 141 73 150
75 3 0 12 5 20 10 8 5 56 30 105 56 50 25 169 87 265 136 96 50 256 132 355
183 164 85 332 172 381 198 10 6 44 23 74 37 30 15 105 53 165 85 61 32 135
70 165 86 30 15 58 33 62 38 4 6 7 624 7 1372 l0 1362 -72 38 c-40 21 -99 52
-132 68 -33 17 -63 35 -67 41 -4 5 -8 6 -8 2 0 -5 -15 0 -32 11 -18 11 -123
66 -233 122 -110 57 -261 134 -335 173 -74 38 -209 108 -300 154 -91 47 -169
89 -174 94 -6 5 -18 9 -27 9 -10 0 -19 3 -21 8 -1 4 -46 29 -98 56 -103 52
-366 188 -605 311 -82 42 -208 107 -280 144 -71 36 -131 69 -133 74 -2 4 -12
7 -22 7 -10 0 -20 3 -22 8 -1 4 -59 35 -128 70 -69 35 -188 96 -265 136 -323
167 -497 256 -498 256 -1 0 -58 -30 -127 -66z m435 -2804 c98 -51 190 -99 202
-107 13 -9 23 -12 23 -8 0 5 8 2 18 -6 9 -8 79 -46 154 -84 76 -39 138 -72
138 -75 0 -3 -78 -45 -172 -93 -95 -48 -285 -145 -421 -216 l-249 -128 -101
51 c-56 28 -104 53 -107 56 -3 3 -70 38 -150 78 -309 157 -425 217 -430 224
-3 3 -18 10 -33 13 l-28 7 22 16 c13 9 82 46 153 83 72 36 203 104 291 149 88
46 211 109 273 141 l113 57 62 -32 c34 -18 143 -75 242 -126z"/>
<path d="M8925 9386 l0 -1306 40 -1 c44 -1 85 -1 160 0 28 0 85 1 128 1 43 0
82 2 88 5 5 4 9 3 9 -2 0 -8 108 -7 143 1 9 2 17 1 17 -2 0 -4 33 -6 72 -4 78
3 81 3 261 -1 64 -1 117 0 117 3 0 3 33 5 73 6 123 1 255 23 336 56 14 6 32
12 39 14 26 5 158 86 192 118 82 75 143 171 173 271 16 55 34 139 36 170 3 64
1 257 -4 264 -2 5 -7 26 -10 47 -23 155 -127 303 -258 367 -32 15 -57 30 -57
32 0 3 15 14 32 25 44 26 141 123 159 158 8 15 17 29 20 32 7 6 46 116 53 150
25 121 25 252 0 415 -15 101 -82 226 -162 302 -62 59 -207 132 -296 149 -11 2
-34 7 -51 10 -64 15 -108 16 -700 21 l-610 4 0 -1305z m880 848 c204 -1 225
-3 277 -28 94 -45 141 -138 141 -276 1 -161 -59 -261 -178 -296 -50 -14 -103
-17 -323 -18 -144 -1 -263 1 -263 4 -1 3 -2 143 -3 311 l-2 307 69 -2 c38 -1
74 2 80 6 6 4 14 4 17 0 3 -4 86 -7 185 -8z m299 -1090 c84 -34 145 -106 162
-194 20 -106 1 -244 -42 -309 -26 -41 -95 -82 -160 -97 -16 -3 -160 -7 -319
-9 l-290 -2 0 319 0 320 300 -4 c268 -4 305 -6 349 -24z"/>
<path d="M13548 10515 c-2 -11 -3 -127 -2 -257 0 -130 -2 -242 -6 -248 -7 -11
-60 -15 -97 -6 -13 2 -25 1 -28 -4 -3 -6 -16 -5 -30 0 -15 6 -27 6 -30 0 -3
-5 -12 -7 -20 -3 -17 6 -16 22 -16 -249 0 -92 2 -172 5 -177 4 -5 52 -9 107
-8 58 1 104 -2 107 -8 4 -5 8 -217 8 -470 2 -436 4 -505 19 -600 11 -72 13
-80 23 -106 6 -15 9 -29 6 -32 -8 -8 66 -144 96 -175 35 -37 99 -75 165 -97
53 -18 65 -21 130 -31 48 -8 246 -12 259 -5 6 2 24 6 40 7 32 2 127 18 208 35
l46 10 -4 47 c-2 26 -6 101 -10 167 -5 104 -8 140 -13 190 -1 6 -22 9 -48 7
-27 -1 -104 -3 -173 -4 -142 -2 -177 9 -207 65 -16 29 -18 76 -21 515 -3 393
-1 482 10 483 7 0 112 1 233 1 121 0 222 4 225 8 3 5 5 102 4 216 l0 208 -27
7 c-15 4 -27 3 -27 -1 0 -5 -12 -5 -27 -1 -16 4 -39 5 -53 1 -14 -4 -35 -3
-47 1 -12 5 -25 4 -28 -1 -3 -5 -16 -6 -28 -1 -12 4 -35 4 -52 1 -16 -3 -40
-3 -52 1 -13 5 -25 4 -28 -2 -4 -5 -11 -6 -17 -3 -6 4 -28 6 -49 6 l-38 -2 0
93 c1 50 0 97 -1 102 -1 6 -1 15 0 20 5 23 3 216 -2 221 -4 3 -3 18 1 32 5 15
5 36 1 47 -7 19 -17 20 -258 20 -243 0 -251 -1 -254 -20z"/>
<path d="M11972 10038 c-15 -4 -43 -10 -62 -12 -57 -8 -79 -14 -151 -41 -155
-60 -275 -167 -358 -319 -33 -62 -84 -203 -97 -271 -4 -22 -9 -47 -10 -55 -14
-68 -18 -145 -18 -335 0 -211 2 -242 25 -365 42 -222 151 -403 294 -485 28
-16 52 -32 55 -35 3 -4 41 -18 85 -32 74 -24 99 -30 195 -45 49 -8 605 -7 660
0 25 4 65 9 90 12 67 7 186 31 201 41 4 2 4 18 -1 34 -5 19 -5 30 1 30 6 0 7
5 4 11 -4 6 -7 33 -6 60 1 27 1 71 2 98 1 27 -2 54 -5 60 -4 5 -2 12 3 16 6 3
7 15 2 28 -4 12 -6 28 -4 35 8 21 -6 64 -18 56 -12 -7 -27 -9 -164 -19 -244
-19 -593 -21 -670 -5 -102 21 -173 75 -206 155 -7 17 -13 32 -13 35 -1 3 -4
10 -7 15 -4 6 -6 34 -5 63 l1 54 560 1 560 2 0 245 c0 135 -3 270 -8 300 -4
30 -10 71 -12 90 -43 289 -229 501 -487 554 -13 3 -34 8 -48 11 -75 17 -338
26 -388 13z m225 -422 c119 -12 204 -83 227 -191 19 -93 27 -180 19 -201 -5
-14 -645 -16 -654 -1 -18 27 19 221 53 276 28 45 34 51 80 79 40 25 60 31 128
39 25 3 47 7 48 8 2 2 13 2 25 0 12 -3 45 -6 74 -9z"/>
<path d="M15697 10044 c-1 -1 -24 -5 -52 -9 -42 -5 -99 -16 -150 -29 -5 -2
-23 -8 -38 -14 -16 -7 -35 -12 -43 -12 -8 0 -14 -4 -14 -10 0 -5 -7 -10 -16
-10 -35 0 -192 -126 -237 -190 -77 -110 -116 -196 -148 -319 -39 -151 -43
-199 -43 -446 0 -121 3 -238 7 -260 4 -22 10 -58 13 -80 6 -44 31 -139 44
-170 4 -11 16 -40 25 -65 23 -61 97 -171 142 -211 66 -57 149 -105 230 -132
140 -46 178 -50 503 -51 223 0 296 3 435 18 26 3 122 18 135 21 3 1 22 5 42 9
32 7 36 11 30 29 -6 20 -7 54 -2 82 4 26 2 104 -4 113 -3 6 -2 13 3 17 6 3 7
13 4 22 -7 19 -9 81 -2 87 3 3 3 23 1 45 l-4 40 -52 -5 c-286 -25 -720 -33
-801 -14 -109 25 -181 82 -206 160 -7 19 -15 40 -19 45 -4 6 -7 34 -6 63 l1
53 560 2 560 2 -1 245 c-1 246 -7 336 -26 420 -5 25 -11 52 -13 61 -32 154
-158 326 -290 395 -69 36 -168 71 -222 79 -21 3 -56 8 -78 11 -39 6 -263 12
-268 8z m181 -428 c128 -12 203 -83 231 -217 6 -30 11 -68 11 -85 -1 -16 1
-43 5 -61 5 -28 3 -33 -17 -37 -13 -3 -163 -4 -334 -4 l-312 1 3 53 c11 169
59 275 148 321 34 17 56 23 117 30 25 3 47 7 48 8 2 2 12 2 23 0 11 -2 45 -6
77 -9z"/>
<path d="M16951 10001 c-9 -6 -5 -20 18 -59 16 -27 27 -53 24 -56 -4 -3 -1 -6
5 -6 6 0 14 -10 18 -22 4 -13 17 -39 29 -58 12 -19 42 -73 67 -120 25 -47 66
-121 90 -165 25 -44 67 -120 93 -170 26 -49 56 -102 67 -117 10 -14 18 -33 18
-41 0 -9 4 -17 8 -19 5 -1 23 -31 41 -65 l33 -61 -27 -49 c-41 -73 -90 -162
-119 -217 -14 -27 -32 -56 -38 -64 -7 -8 -13 -18 -12 -21 1 -3 -4 -15 -11 -26
-15 -24 -248 -453 -258 -475 -4 -8 -18 -33 -32 -55 -13 -22 -24 -43 -25 -47 0
-8 -6 -7 160 -7 69 0 130 0 135 0 62 -2 160 -3 200 -2 l51 1 49 98 c28 53 53
99 58 100 4 2 7 12 7 22 0 10 3 20 8 22 7 3 98 175 152 285 14 29 27 53 30 53
3 0 28 -42 55 -92 108 -204 157 -297 202 -385 50 -98 75 -119 121 -102 13 5
21 5 18 1 -3 -6 76 -7 94 -2 3 1 21 1 40 1 107 -3 292 -1 301 4 5 4 9 1 9 -6
0 -9 3 -10 10 -3 8 8 -11 49 -60 133 -38 68 -70 124 -70 126 0 2 -13 26 -28
52 -16 26 -46 80 -67 118 -21 39 -80 145 -131 237 -52 92 -94 171 -94 177 0 6
-4 11 -10 11 -5 0 -10 6 -10 14 0 8 -3 16 -7 18 -5 2 -18 25 -31 52 l-23 48
58 102 c31 55 61 103 65 104 4 2 8 7 8 12 0 7 116 215 140 250 6 8 15 24 20
35 6 11 22 38 35 60 14 22 30 52 37 68 7 15 16 27 20 27 4 0 8 5 8 11 0 6 21
45 46 87 64 105 94 159 94 170 0 13 -49 20 -80 12 -14 -4 -35 -3 -47 1 -12 5
-25 4 -28 -1 -3 -5 -16 -6 -28 -1 -12 4 -35 4 -52 1 -16 -3 -40 -3 -52 1 -12
5 -25 4 -28 -1 -3 -5 -15 -6 -27 -1 -12 4 -36 5 -53 1 -17 -4 -39 -4 -50 0
-11 4 -27 4 -35 0 -8 -4 -24 -4 -35 0 -15 5 -23 0 -36 -24 -9 -17 -57 -110
-106 -206 -50 -97 -100 -191 -110 -210 -40 -71 -47 -85 -49 -97 -1 -6 -9 -22
-17 -33 -15 -21 -16 -21 -25 -3 -80 153 -122 233 -188 363 -43 85 -82 157 -87
158 -4 2 -5 7 -2 12 3 5 -6 17 -20 28 -20 16 -32 18 -65 12 -25 -4 -40 -4 -40
3 0 6 -4 6 -12 -1 -7 -5 -22 -6 -33 -2 -11 4 -29 4 -40 0 -11 -4 -29 -4 -40 0
-11 4 -30 4 -41 -1 -12 -4 -25 -5 -28 -2 -3 3 -29 5 -58 4 -107 -3 -148 -2
-156 3 -4 2 -14 1 -21 -3z"/>
</g>
</svg>
