<?xml version="1.0" standalone="no"?>
<!DOCTYPE svg PUBLIC "-//W3C//DTD SVG 20010904//EN"
 "http://www.w3.org/TR/2001/REC-SVG-20010904/DTD/svg10.dtd">
<svg version="1.0" xmlns="http://www.w3.org/2000/svg"
 width="704.000000pt" height="704.000000pt" viewBox="0 0 704.000000 704.000000"
 preserveAspectRatio="xMidYMid meet">
<metadata>
Created by potrace 1.11, written by Peter Selinger 2001-2013
</metadata>
<g transform="translate(0.000000,704.000000) scale(0.100000,-0.100000)"
fill="#000000" stroke="none">
<path d="M3420 6707 c-85 -46 -281 -148 -445 -232 -104 -53 -253 -130 -330
-169 -77 -40 -234 -121 -350 -181 -115 -59 -214 -111 -220 -116 -5 -5 -17 -9
-26 -9 -10 0 -19 -4 -21 -8 -1 -5 -57 -36 -123 -69 -115 -58 -178 -91 -520
-268 -295 -152 -741 -382 -955 -493 -74 -38 -197 -101 -274 -140 -76 -40 -142
-69 -147 -66 -5 3 -9 -570 -9 -1359 0 -1114 2 -1364 13 -1364 13 0 182 -80
202 -96 6 -4 69 -37 140 -73 138 -70 396 -203 610 -314 72 -37 209 -108 305
-158 96 -49 196 -101 223 -115 26 -14 47 -23 47 -20 0 4 8 -1 18 -9 9 -8 49
-31 87 -50 77 -38 407 -208 580 -298 61 -31 196 -101 300 -155 105 -54 240
-123 300 -155 61 -32 218 -113 350 -180 132 -67 246 -127 253 -133 10 -8 59
12 190 79 97 49 179 91 182 94 3 3 61 34 130 69 69 35 193 98 275 140 83 43
249 128 370 191 121 62 256 131 300 154 44 22 83 45 87 51 4 5 8 6 8 1 0 -5 6
-4 13 2 6 5 100 55 207 110 107 55 258 132 335 172 77 40 214 111 305 157 91
47 171 90 178 95 6 6 12 7 12 3 0 -4 6 -3 13 3 7 6 76 43 153 83 76 39 154 80
172 91 17 11 32 16 32 12 0 -4 8 0 18 8 9 8 62 37 117 64 55 27 102 51 105 54
11 11 241 123 254 123 11 0 14 213 14 1357 l0 1357 -37 13 c-20 7 -38 16 -41
19 -3 3 -54 31 -115 61 -60 30 -127 65 -147 78 -21 12 -38 19 -38 16 0 -4 -6
-2 -12 4 -7 6 -69 39 -138 75 -69 35 -201 103 -293 151 -209 107 -209 107
-227 117 -52 26 -313 161 -405 209 -165 86 -479 248 -672 347 -94 48 -240 123
-325 167 -84 43 -202 104 -263 136 -60 31 -209 108 -330 170 -121 62 -262 135
-314 162 -51 26 -94 48 -95 48 0 0 -12 -6 -26 -13z m66 -906 c5 -5 90 -50 189
-101 99 -51 207 -107 240 -125 33 -17 125 -65 205 -106 80 -40 148 -78 152
-84 4 -5 8 -7 8 -2 0 4 24 -6 53 -22 133 -73 287 -150 287 -143 0 4 4 2 8 -4
4 -6 106 -62 227 -124 121 -62 274 -141 340 -175 66 -34 199 -103 295 -152
277 -143 473 -245 493 -255 20 -10 24 -8 -228 -137 -60 -31 -111 -59 -113 -63
-2 -5 -11 -8 -21 -8 -9 0 -21 -4 -27 -9 -17 -15 -402 -213 -407 -209 -1 2 -15
-6 -31 -18 -28 -20 -31 -20 -60 -5 -17 9 -32 19 -34 24 -2 4 -12 7 -22 7 -10
0 -20 3 -22 8 -1 4 -43 27 -93 52 -49 25 -102 53 -117 63 -16 10 -28 15 -28
11 0 -3 -6 -2 -12 4 -7 5 -76 42 -153 82 -266 138 -470 243 -590 303 -66 34
-123 66 -127 72 -4 5 -8 6 -8 1 0 -5 -6 -4 -12 2 -7 5 -107 58 -222 117 l-208
107 -112 -57 c-61 -32 -160 -83 -221 -115 -60 -31 -195 -101 -300 -155 -104
-54 -196 -102 -202 -107 -7 -6 -13 -7 -13 -2 0 5 -4 5 -8 -1 -7 -10 -176 -98
-507 -265 -93 -47 -172 -87 -175 -90 -3 -3 -32 -19 -65 -35 -33 -17 -61 -33
-63 -37 -2 -4 -40 12 -85 36 -45 24 -161 84 -257 133 -213 110 -475 246 -513
266 -34 18 -36 16 128 98 72 35 132 66 135 69 3 3 50 28 105 56 206 104 540
277 553 287 6 5 12 6 12 1 0 -5 4 -4 8 2 4 5 43 28 87 50 44 21 82 42 83 47 2
4 12 7 22 7 10 0 20 3 22 8 2 4 56 34 121 66 65 32 120 63 123 68 3 4 13 8 23
8 10 0 24 7 31 15 7 8 21 15 30 15 10 0 20 3 22 8 2 4 73 42 158 86 85 43 218
111 295 151 541 283 576 299 601 276z m94 -1860 c47 -24 117 -60 155 -81 39
-20 165 -86 280 -145 116 -59 214 -111 219 -116 11 -10 4 -20 -16 -23 -8 -1
-31 -12 -52 -24 -21 -13 -52 -29 -70 -37 -17 -8 -38 -19 -46 -24 -20 -12 -137
-72 -230 -118 -41 -21 -78 -41 -81 -46 -3 -5 -9 -9 -12 -8 -7 0 -81 -35 -207
-99 l-74 -38 -176 90 c-96 50 -236 122 -310 161 -74 39 -174 90 -222 114 -49
25 -88 46 -88 48 0 1 48 27 108 56 59 30 109 56 112 59 3 3 96 51 207 108 110
56 239 122 284 146 94 49 74 51 219 -23z"/>
</g>
</svg>
