<svg xmlns="http://www.w3.org/2000/svg" xmlns:xlink="http://www.w3.org/1999/xlink" width="14" height="18" viewBox="0 0 14 18"> <defs> <path id="a" d="M175.36 598.7l-3.06-3.06a2.4 2.4 0 0 0-1.3-.64v5h5a2.4 2.4 0 0 0-.64-1.3z"/> <path id="b" d="M170.05 602.5a.97.97 0 0 1-.74-.33 1.1 1.1 0 0 1-.31-.8V595h-5.95a.97.97 0 0 0-.74.33 1.1 1.1 0 0 0-.31.79v15.76c0 .31.1.57.31.79.2.22.45.33.74.33h11.9c.29 0 .54-.11.74-.33.21-.22.31-.48.31-.79v-9.38z"/> </defs> <g transform="translate(-162 -595)"> <use fill="#fe3824" xlink:href="#a"/> </g> <g transform="translate(-162 -595)"> <use fill="#fe3824" xlink:href="#b"/> </g> </svg>